<svg width="20" height="21" viewBox="0 0 20 21" fill="none" xmlns="http://www.w3.org/2000/svg">
<path fill-rule="evenodd" clip-rule="evenodd" d="M10.367 2.16794C12.4816 2.2087 14.3831 3.27514 15.4536 5.02071C16.5479 6.80495 16.5779 8.94818 15.5338 10.7539L11.1596 18.3185L11.1536 18.3286C10.9612 18.6446 10.6164 18.8333 10.2314 18.8333C9.8463 18.8333 9.50153 18.6446 9.30908 18.3286L9.30312 18.3185L4.92889 10.7539C3.88476 8.94818 3.9147 6.80495 5.00899 5.02071C6.07958 3.27514 7.9811 2.2087 10.0956 2.16794C10.1859 2.16619 10.2768 2.16619 10.367 2.16794ZM7.75069 7.51038C7.75069 8.8774 8.86348 9.98954 10.2313 9.98954C11.5991 9.98954 12.7119 8.8774 12.7119 7.51038C12.7119 6.14336 11.5991 5.03121 10.2313 5.03121C8.86348 5.03121 7.75069 6.14336 7.75069 7.51038Z" fill="#959BA1"/>
</svg>
