<svg width="12" height="11" viewBox="0 0 12 11" fill="none" xmlns="http://www.w3.org/2000/svg">
<path fill-rule="evenodd" clip-rule="evenodd" d="M3.51549 1.48648C2.97861 1.48648 2.30982 1.93872 1.97265 2.80879L1.97262 2.80885C1.62525 3.70497 1.76939 4.67901 2.40424 5.50224L2.40426 5.50227C3.49915 6.92225 4.53649 8.15912 5.35746 9.10161C5.83577 9.65073 6.67639 9.65072 7.15475 9.10153C7.97618 8.15849 9.01389 6.92125 10.108 5.50227L10.1081 5.5022C10.743 4.679 10.8871 3.70584 10.5398 2.8097C10.2027 1.93997 9.53404 1.48834 8.99695 1.48834C8.42199 1.48834 7.97023 1.84343 7.579 2.34015C7.41041 2.55419 7.27405 2.76727 7.14915 2.96243C7.13164 2.9898 7.11435 3.01681 7.09723 3.04342C7.03402 3.14169 6.95919 3.25655 6.88532 3.34781C6.84876 3.39299 6.79243 3.45782 6.71872 3.51618C6.65638 3.56554 6.49747 3.67863 6.26736 3.67863H6.24483C6.01507 3.67863 5.85627 3.56591 5.79378 3.51653C5.71997 3.4582 5.66354 3.39338 5.62687 3.34815C5.55279 3.25679 5.47779 3.14184 5.41441 3.04341C5.39695 3.0163 5.37932 2.98877 5.36146 2.96089C5.23651 2.76583 5.10018 2.55301 4.93179 2.33915C4.53984 1.84139 4.08836 1.48648 3.51549 1.48648ZM0.782397 2.34747C1.24717 1.14819 2.29685 0.209961 3.51549 0.209961C4.68328 0.209961 5.46359 0.951124 5.93471 1.54944C6.05503 1.70224 6.16261 1.85538 6.25575 1.99459C6.3487 1.85563 6.45606 1.7028 6.57618 1.55029C7.04752 0.951871 7.82805 0.211816 8.99695 0.211816C10.2151 0.211816 11.265 1.14865 11.73 2.3483L11.7301 2.34838C12.2474 3.68347 12.0117 5.12429 11.1189 6.28175M5.8886 2.55001C5.8886 2.54998 5.88923 2.54923 5.89048 2.54787C5.88922 2.54936 5.8886 2.55004 5.8886 2.55001ZM6.62106 2.54739C6.62231 2.54875 6.62294 2.5495 6.62293 2.54952C6.62293 2.54955 6.62231 2.54888 6.62106 2.54739ZM0.782372 2.34753C0.264844 3.68267 0.500812 5.12434 1.39337 6.28177C2.50689 7.7259 3.56096 8.98267 4.3949 9.94006C5.38206 11.0734 7.13023 11.0732 8.11732 9.93997C8.95167 8.98209 10.0061 7.72497 11.1189 6.28182" fill="#B5BAC1"/>
</svg>
