<?xml version="1.0" encoding="UTF-8"?>
<svg width="233px" height="53px" viewBox="0 0 233 53" version="1.1" xmlns="http://www.w3.org/2000/svg" xmlns:xlink="http://www.w3.org/1999/xlink">
    <title>logo/標準/FFFFFF</title>
    <g id="logo/標準/FFFFFF" stroke="none" stroke-width="1" fill="none" fill-rule="evenodd">
        <path d="M25.6110314,34.9414205 C25.5886276,35.5493115 25.1286019,36.0377154 24.5356468,36.1153821 L20.6881596,36.5201449 L20.6881596,15.8667859 C20.6881596,15.1513564 20.2669673,14.5046321 19.6142686,14.2148756 L8.07180705,9.08588846 L24.3922622,7.37124744 C25.0658712,7.38319615 25.6110314,7.92985 25.6110314,8.60793974 L25.6110314,34.9414205 Z M26.5968006,3.50882436 L1.61800577,6.13156795 C0.696460897,6.22715769 0.000448076923,7.00531795 0.000448076923,7.92835641 L0.000448076923,8.27935 L0.000448076923,40.3213308 L0.000448076923,40.6738179 C0.000448076923,41.3862603 0.420146795,42.0329846 1.07284551,42.3242346 L18.1460699,49.9086833 C18.3820571,50.0132346 18.6299929,50.0655103 18.8794224,50.0655103 C19.2244417,50.0655103 19.5679673,49.9669333 19.8651917,49.7742603 C20.3774929,49.4411897 20.6881596,48.8691449 20.6881596,48.2582667 L20.6881596,40.1540487 L26.6505699,39.526741 C28.0754545,39.3490038 29.224025,38.0660103 29.224025,36.6321641 L29.224025,5.85674744 C29.224025,4.40945897 28.0485699,3.35647821 26.5968006,3.50882436 L26.5968006,3.50882436 Z" id="Fill-1" fill="#FFFFFF"></path>
        <path d="M68.5305276,39.4922391 L58.069425,10.5151045 C57.6736237,9.508425 56.4249827,9.50245064 55.5333096,9.50517895 C54.6431301,9.50245064 53.3944891,9.508425 52.9986878,10.5151045 L42.5375853,39.4922391 C42.2433481,40.2703994 42.1522391,41.0052455 43.1290468,41.0739506 C43.9251301,41.1486301 45.287284,41.2203224 46.0206365,40.930566 C46.3223417,40.7901686 46.4567647,40.5945083 46.5628096,40.2883224 L49.0571045,32.9801878 C49.0944442,32.8681686 49.1989955,32.7949827 49.3169891,32.7949827 L56.9895596,32.7949827 C57.4316622,32.7949827 57.8289571,32.5306173 57.9992263,32.1213737 L58.6280276,30.6352519 C58.8550532,30.0915853 58.4547712,29.4911622 57.8677904,29.4911622 L50.5432263,29.4911622 C50.3535404,29.4911622 50.2221045,29.3059571 50.2833417,29.1282199 L55.273425,14.692675 C55.3585596,14.4462327 55.7080596,14.4477263 55.7917006,14.6941686 L64.5038096,40.2883224 C64.6098545,40.5945083 64.7457712,40.7901686 65.0459827,40.930566 C65.7793353,41.2203224 67.1429827,41.1486301 67.939066,41.0739506 C68.9143801,41.0052455 68.8247647,40.2703994 68.5305276,39.4922391" id="Fill-4" fill="#FFFFFF"></path>
        <path d="M143.692743,10.6940365 L143.692743,30.0539468 C143.692743,31.9672353 143.419416,33.6549917 142.872762,35.117216 C141.277608,39.6472737 136.660922,41.7263506 131.938192,41.7263506 C127.216954,41.7263506 122.598775,39.6472737 121.005115,35.117216 C120.458461,33.6549917 120.185134,31.9672353 120.185134,30.0539468 L120.185134,10.6940365 C120.204551,9.86658782 121.565211,9.92185064 122.258237,9.92185064 C122.951262,9.92185064 124.267115,9.8546391 124.307442,10.6940365 L124.307442,29.5476199 C124.267115,33.027684 125.605371,38.1880365 131.938192,38.1880365 C138.272506,38.1880365 139.612256,33.027684 139.570435,29.5476199 L139.570435,10.6940365 C139.610762,9.8546391 140.926615,9.92185064 141.61964,9.92185064 C142.312666,9.92185064 143.671833,9.86658782 143.692743,10.6940365" id="Fill-6" fill="#FFFFFF"></path>
        <path d="M92.2886115,36.5736154 C92.3364064,37.9835641 91.9869064,38.497359 90.6725474,39.2844808 C89.3820859,40.0895256 87.8048551,40.6884551 86.1290474,41.0454231 C79.140541,42.4180321 72.7390154,39.5951474 70.577791,32.4871538 C68.8183423,26.6472179 69.3694769,18.4339679 73.4589256,13.7291603 C76.4625346,10.1430513 81.4018359,8.77641667 85.9961179,9.65614103 C87.9213551,10.0175897 90.0900474,10.8032179 91.4566821,12.0175064 C91.9734641,12.4999359 92.0481436,12.8076154 92.1317846,13.4528462 C92.1706179,14.1145064 92.3379,15.9740256 91.4163551,16.0322756 C91.1908231,16.0322756 90.8756756,15.8754487 90.4709128,15.5632885 C89.3835795,14.7418141 88.0916244,13.9815769 86.5816051,13.4886923 C78.1458103,11.1422628 73.9428487,17.6543141 74.0384385,25.5554038 C74.0518808,30.1511795 75.1944769,34.9500833 79.4676372,36.9231154 C81.4526179,37.8715449 84.616041,37.9327821 86.6771949,37.2472244 C88.2155923,36.7722628 89.5389128,35.9985833 90.6650795,35.1980192 C92.2348423,34.0494487 92.2886115,35.2458141 92.2886115,36.5736154" id="Fill-8" fill="#FFFFFF"></path>
        <path d="M116.536892,36.5736154 C116.584687,37.9835641 116.235187,38.497359 114.920828,39.2844808 C113.630366,40.0895256 112.053135,40.6884551 110.375834,41.0454231 C103.388821,42.4180321 96.9872955,39.5951474 94.8260712,32.4871538 C93.0666224,26.6472179 93.6177571,18.4339679 97.7072058,13.7291603 C100.710815,10.1430513 105.650116,8.77641667 110.244398,9.65614103 C112.169635,10.0175897 114.338328,10.8032179 115.704962,12.0175064 C116.221744,12.4999359 116.296424,12.8076154 116.380065,13.4528462 C116.418898,14.1145064 116.58618,15.9740256 115.664635,16.0322756 C115.439103,16.0322756 115.123956,15.8754487 114.719193,15.5632885 C113.63186,14.7418141 112.339904,13.9815769 110.829885,13.4886923 C102.39409,11.1422628 98.1911288,17.6543141 98.2867186,25.5554038 C98.2986673,30.1511795 99.4427571,34.9500833 103.715917,36.9231154 C105.700898,37.8715449 108.864321,37.9327821 110.925475,37.2472244 C112.463872,36.7722628 113.787193,35.9985833 114.91336,35.1980192 C116.483122,34.0494487 116.536892,35.2458141 116.536892,36.5736154" id="Fill-10" fill="#FFFFFF"></path>
        <path d="M212.341115,32.2883571 C212.354557,40.5628442 203.278012,42.8540109 196.71966,40.4373827 C196.032608,40.184966 195.454589,39.9235878 194.990083,39.6562353 C194.202961,39.1723122 193.86989,39.0095109 193.61598,38.2447929 C193.459153,37.6697609 193.22466,35.2142994 194.243288,35.2740429 C194.464339,35.2740429 194.776499,35.408466 195.179769,35.6773122 C195.581544,35.9446647 196.098326,36.2374083 196.730115,36.5510622 C198.308839,37.3142865 200.110108,37.8967865 202.107038,37.8564596 C205.234615,37.913216 208.160557,36.1089596 208.076916,32.7394212 C208.12023,30.0733635 205.887313,28.658934 203.706672,27.610434 C199.290128,25.5851263 194.159647,23.6046263 194.243288,17.8154724 C194.168608,11.6096071 200.142967,9.03764551 205.602038,9.96367115 C207.12998,10.2250494 208.974563,10.7985878 210.102224,11.6932481 C210.502506,12.057684 210.533871,12.3534147 210.58764,12.8642224 C210.623487,13.455684 210.644397,14.3458635 210.469647,14.9134276 C210.227685,15.578075 209.76766,15.3794276 209.155288,15.0194724 C208.188935,14.4578827 207.121019,13.8783699 205.88582,13.5169212 C203.94714,12.9299404 201.149647,12.9911776 199.620211,14.4280109 C198.225198,15.6706776 198.013108,18.1306199 198.980954,19.6391455 C199.375262,20.2545045 199.901006,20.8011583 200.556692,21.2746263 C202.756749,22.8309468 205.572166,23.6807994 207.911128,25.1012032 C210.560756,26.6067417 212.415794,29.0622032 212.341115,32.2883571" id="Fill-12" fill="#FFFFFF"></path>
        <path d="M191.917171,39.4922391 L181.454575,10.5151045 C181.058774,9.508425 179.811626,9.50245064 178.919953,9.50517895 C178.02828,9.50245064 176.781133,9.508425 176.385331,10.5151045 L165.922735,39.4922391 C165.629992,40.2703994 165.538883,41.0052455 166.51569,41.0739506 C167.311774,41.1486301 168.673928,41.2203224 169.40728,40.930566 C169.708985,40.7901686 169.843408,40.5945083 169.949453,40.2883224 L172.443748,32.9801878 C172.481088,32.8681686 172.585639,32.7949827 172.703633,32.7949827 L180.376203,32.7949827 C180.818306,32.7949827 181.215601,32.5306173 181.38587,32.1213737 L182.014671,30.6352519 C182.241697,30.0915853 181.841415,29.4911622 181.254434,29.4911622 L173.928376,29.4911622 C173.740184,29.4911622 173.607254,29.3059571 173.669985,29.1282199 L178.658575,14.692675 C178.74371,14.4462327 179.09321,14.4477263 179.178344,14.6941686 L187.890453,40.2883224 C187.996498,40.5945083 188.130921,40.7901686 188.432626,40.930566 C189.165979,41.2203224 190.528133,41.1486301 191.324216,41.0739506 C192.301024,41.0052455 192.209915,40.2703994 191.917171,39.4922391" id="Fill-14" fill="#FFFFFF"></path>
        <path d="M163.258321,19.0780038 C163.350923,16.0370551 161.486923,13.5995167 158.617737,13.1962474 C157.307859,12.9527923 154.756808,13.0319526 153.149705,13.030459 C152.846506,13.030459 152.601558,13.2769013 152.601558,13.5786064 L152.601558,24.9851513 C152.601558,25.28835 152.845013,25.5332987 153.148212,25.5332987 C155.048058,25.5347923 158.075564,25.6886321 159.461615,25.0568436 C161.981301,24.1457538 163.297154,21.6977603 163.258321,19.0780038 M167.62259,18.7404526 C167.700256,23.0927731 165.289603,26.8655808 161.125474,28.2157859 C159.734942,28.6967218 158.075564,28.9401769 156.145846,28.9401769 L152.601558,28.9401769 L152.601558,40.1734654 C152.637404,41.2413821 148.455353,41.2413821 148.455353,40.1734654 L148.455353,11.3875103 C148.455353,10.7452667 148.624128,10.285241 148.961679,10.0134077 C149.299231,9.74008077 149.677109,9.60267051 150.095314,9.60267051 L156.773154,9.60267051 C159.095686,9.63552949 161.334577,9.8371641 163.48684,11.0858051 C166.249981,12.6421256 167.659929,15.5620936 167.62259,18.7404526" id="Fill-16" fill="#FFFFFF"></path>
        <path d="M232.856765,32.2883571 C232.870207,40.5628442 223.793662,42.8540109 217.23531,40.4373827 C216.548258,40.184966 215.970239,39.9235878 215.505733,39.6562353 C214.718611,39.1723122 214.38554,39.0095109 214.13163,38.2447929 C213.974803,37.6697609 213.74031,35.2142994 214.758938,35.2740429 C214.979989,35.2740429 215.292149,35.408466 215.695419,35.6773122 C216.097194,35.9446647 216.613976,36.2374083 217.245765,36.5510622 C218.824489,37.3142865 220.625758,37.8967865 222.622688,37.8564596 C225.751758,37.913216 228.677701,36.1089596 228.592566,32.7394212 C228.63588,30.0733635 226.402963,28.658934 224.222322,27.610434 C219.805778,25.5851263 214.675297,23.6046263 214.758938,17.8154724 C214.684258,11.6096071 220.658617,9.03764551 226.117688,9.96367115 C227.64563,10.2250494 229.490213,10.7985878 230.617874,11.6932481 C231.018156,12.057684 231.049521,12.3534147 231.10329,12.8642224 C231.139137,13.455684 231.160047,14.3458635 230.985297,14.9134276 C230.744829,15.578075 230.28331,15.3794276 229.670938,15.0194724 C228.704585,14.4578827 227.636669,13.8783699 226.40147,13.5169212 C224.46279,12.9299404 221.665297,12.9911776 220.135861,14.4280109 C218.740848,15.6706776 218.528758,18.1306199 219.496604,19.6391455 C219.890912,20.2545045 220.416656,20.8011583 221.072342,21.2746263 C223.272399,22.8309468 226.087816,23.6807994 228.426778,25.1012032 C231.076406,26.6067417 232.931444,29.0622032 232.856765,32.2883571" id="Fill-18" fill="#FFFFFF"></path>
    </g>
</svg>