<svg width="20" height="21" viewBox="0 0 20 21" fill="none" xmlns="http://www.w3.org/2000/svg">
<path fill-rule="evenodd" clip-rule="evenodd" d="M4.625 5.50001C4.34519 5.49899 4.06806 5.55457 3.81028 5.66341C3.55251 5.77225 3.31941 5.9321 3.125 6.13335C2.7249 6.53336 2.50009 7.07592 2.5 7.64168V13.3583C2.4997 13.9266 2.72441 14.4719 3.125 14.875C3.32097 15.0736 3.55455 15.2312 3.8121 15.3385C4.06964 15.4458 4.34599 15.5007 4.625 15.5H11C11.2789 15.5002 11.5552 15.4451 11.8126 15.3378C12.0701 15.2305 12.3038 15.0732 12.5 14.875C12.9006 14.4719 13.1253 13.9266 13.125 13.3583V12.225L14.85 13.9667C14.998 14.1188 15.1884 14.2229 15.3964 14.2655C15.6044 14.308 15.8203 14.2871 16.0162 14.2053C16.2121 14.1235 16.3789 13.9847 16.4949 13.8069C16.6109 13.6292 16.6707 13.4206 16.6667 13.2083V7.79168C16.6666 7.58124 16.6044 7.3755 16.4877 7.20037C16.371 7.02524 16.2051 6.88854 16.0109 6.80747C15.8167 6.7264 15.6028 6.70459 15.3963 6.74479C15.1897 6.78498 14.9996 6.88538 14.85 7.03335L13.125 8.79168V7.64168C13.1249 7.07592 12.9001 6.53336 12.5 6.13335C12.3053 5.93248 12.0721 5.77288 11.8144 5.66407C11.5567 5.55526 11.2797 5.49947 11 5.50001H4.625Z" fill="#959BA1"/>
</svg>
