<svg width="17" height="13" viewBox="0 0 17 13" fill="none" xmlns="http://www.w3.org/2000/svg">
<path fill-rule="evenodd" clip-rule="evenodd" d="M1.93888 6.5C2.01174 6.62591 2.10833 6.78637 2.22799 6.97165C2.53534 7.44754 2.9905 8.0804 3.58141 8.71071C4.7754 9.98429 6.44472 11.1667 8.51172 11.1667C10.5787 11.1667 12.248 9.98429 13.442 8.71071C14.0329 8.0804 14.4881 7.44754 14.7954 6.97165C14.9151 6.78637 15.0117 6.62591 15.0846 6.5C15.0117 6.37409 14.9151 6.21363 14.7954 6.02835C14.4881 5.55246 14.0329 4.9196 13.442 4.28929C12.248 3.01571 10.5787 1.83333 8.51172 1.83333C6.44472 1.83333 4.7754 3.01571 3.58141 4.28929C2.9905 4.9196 2.53534 5.55246 2.22799 6.02835C2.10833 6.21363 2.01174 6.37409 1.93888 6.5ZM15.8451 6.5C16.4413 6.20186 16.4412 6.20163 16.4411 6.20139L16.44 6.19925L16.4377 6.19469L16.4302 6.17988C16.4238 6.16752 16.4148 6.15021 16.4032 6.12829C16.38 6.08447 16.3464 6.02215 16.3024 5.94399C16.2145 5.78776 16.0852 5.56768 15.9155 5.30498C15.577 4.78088 15.0738 4.0804 14.4147 3.37737C13.1087 1.98429 11.1114 0.5 8.51172 0.5C5.91205 0.5 3.91471 1.98429 2.60869 3.37737C1.94961 4.0804 1.44643 4.78088 1.10794 5.30498C0.938285 5.56768 0.808913 5.78776 0.721033 5.94399C0.677068 6.02215 0.643412 6.08447 0.620221 6.12829C0.608623 6.15021 0.599636 6.16752 0.593277 6.17988L0.585712 6.19469L0.583411 6.19925L0.582632 6.2008C0.58251 6.20104 0.582101 6.20186 1.17839 6.5L0.582101 6.20186C0.488258 6.38954 0.488258 6.61046 0.582101 6.79814L1.17839 6.5C0.582101 6.79814 0.581978 6.7979 0.582101 6.79814L0.583411 6.80075L0.585712 6.80531L0.593277 6.82012C0.599636 6.83248 0.608623 6.84979 0.620221 6.87171C0.643412 6.91553 0.677068 6.97785 0.721033 7.05601C0.808913 7.21224 0.938285 7.43232 1.10794 7.69502C1.44643 8.21913 1.94961 8.9196 2.60869 9.62263C3.91471 11.0157 5.91205 12.5 8.51172 12.5C11.1114 12.5 13.1087 11.0157 14.4147 9.62263C15.0738 8.9196 15.577 8.21913 15.9155 7.69502C16.0852 7.43232 16.2145 7.21224 16.3024 7.05601C16.3464 6.97785 16.38 6.91553 16.4032 6.87171C16.4148 6.84979 16.4238 6.83248 16.4302 6.82012L16.4377 6.80531L16.44 6.80075L16.4408 6.7992C16.4409 6.79896 16.4413 6.79814 15.8451 6.5ZM15.8451 6.5L16.4413 6.79814C16.5352 6.61046 16.5349 6.38907 16.4411 6.20139L15.8451 6.5Z" fill="#B5BAC1"/>
<path fill-rule="evenodd" clip-rule="evenodd" d="M8.51237 5.16634C7.77599 5.16634 7.17904 5.76329 7.17904 6.49967C7.17904 7.23605 7.77599 7.83301 8.51237 7.83301C9.24875 7.83301 9.8457 7.23605 9.8457 6.49967C9.8457 5.76329 9.24875 5.16634 8.51237 5.16634ZM5.8457 6.49967C5.8457 5.02692 7.03961 3.83301 8.51237 3.83301C9.98513 3.83301 11.179 5.02692 11.179 6.49967C11.179 7.97243 9.98513 9.16634 8.51237 9.16634C7.03961 9.16634 5.8457 7.97243 5.8457 6.49967Z" fill="#B5BAC1"/>
</svg>
