<svg xmlns:xlink="http://www.w3.org/1999/xlink" xmlns="http://www.w3.org/2000/svg" width="126" height="32" fill="none" viewBox="0 0 126 32" style="margin-right: 10px;"><path fill="#0088D2" fill-rule="evenodd" d="M13.752 20.56a.66.66 0 0 1-.577.63l-2.066.217v-11.09a.97.97 0 0 0-.577-.887L4.334 6.676l8.764-.921c.362.006.654.3.654.664v14.14Zm.53-16.88L.869 5.09A.97.97 0 0 0 0 6.053v17.584c0 .382.225.73.576.886l9.168 4.073a.97.97 0 0 0 1.365-.887V23.36l3.202-.337c.765-.096 1.382-.785 1.382-1.554V4.942c0-.778-.632-1.343-1.411-1.261ZM36.8 23.004l-5.618-15.56c-.212-.54-.883-.544-1.362-.542-.478-.002-1.148.001-1.36.542l-5.618 15.56c-.158.418-.207.813.317.85.428.04 1.16.078 1.553-.077.162-.076.234-.18.291-.345l1.34-3.925c.02-.06.076-.099.14-.099h4.12c.237 0 .45-.142.541-.362l.338-.798a.444.444 0 0 0-.408-.614H27.14a.147.147 0 0 1-.14-.195l2.68-7.752a.147.147 0 0 1 .278.001l4.678 13.744c.057.164.13.27.291.345.394.155 1.127.117 1.554.077.524-.037.476-.432.318-.85Zm40.36-5.068V7.54c-.01-.42-.66-.416-1.046-.415H75.97c-.385-.002-1.003-.006-1.023.415v10.124c.023 1.869-.697 4.64-4.098 4.64-3.4 0-4.12-2.771-4.098-4.64V7.54c-.02-.42-.638-.417-1.023-.415H65.585c-.387-.001-1.038-.004-1.047.415v10.396c0 1.027.146 1.934.44 2.719.856 2.433 3.336 3.549 5.87 3.549 2.537 0 5.016-1.116 5.872-3.549.294-.785.44-1.692.44-2.719Zm-27.603 3.501c.026.757-.162 1.033-.867 1.456-.693.432-1.54.754-2.44.945-3.753.737-7.19-.778-8.351-4.595-.945-3.136-.649-7.547 1.547-10.073 1.613-1.926 4.265-2.66 6.732-2.187 1.034.194 2.199.616 2.933 1.268.277.259.317.424.362.77l.004.06c.025.396.081 1.296-.388 1.326-.121 0-.29-.085-.508-.252a7.154 7.154 0 0 0-2.088-1.114c-4.53-1.26-6.787 2.237-6.736 6.48.008 2.467.621 5.044 2.916 6.104 1.066.509 2.764.542 3.871.174.826-.255 1.537-.67 2.142-1.1.843-.617.871.025.871.738Zm12.154 1.456c.705-.423.893-.699.867-1.456 0-.713-.029-1.355-.871-.739-.605.43-1.316.846-2.142 1.1-1.107.369-2.805.336-3.871-.173-2.295-1.06-2.91-3.637-2.916-6.105-.051-4.242 2.206-7.74 6.736-6.48.81.265 1.505.674 2.088 1.115.218.167.387.252.508.252.47-.03.413-.93.388-1.325l-.004-.06c-.045-.347-.085-.512-.362-.771-.734-.652-1.899-1.074-2.933-1.268-2.467-.473-5.119.261-6.732 2.187-2.196 2.526-2.492 6.937-1.547 10.073 1.16 3.817 4.598 5.332 8.35 4.595.9-.191 1.748-.513 2.44-.945Zm52.313-3.757c.007 4.443-4.867 5.673-8.389 4.376a6.07 6.07 0 0 1-.928-.42l-.077-.047c-.368-.225-.533-.326-.661-.71-.084-.31-.21-1.628.337-1.596.118 0 .286.072.503.217.215.143.493.3.832.469.848.41 1.815.723 2.887.7 1.68.031 3.251-.938 3.206-2.747.023-1.431-1.176-2.191-2.347-2.754a61.887 61.887 0 0 0-.404-.184c-2.269-1.03-4.72-2.142-4.677-5.076-.04-3.332 3.168-4.713 6.099-4.216.821.14 1.811.448 2.417.929.215.195.231.354.26.628.02.318.031.796-.063 1.1-.13.358-.377.251-.706.058-.519-.302-1.092-.613-1.755-.807-1.042-.315-2.544-.282-3.365.49-.749.666-.863 1.987-.343 2.797.211.33.494.624.846.879.657.464 1.416.812 2.177 1.16.607.278 1.215.556 1.772.894 1.423.809 2.419 2.127 2.379 3.86ZM97.438 7.443l5.619 15.56c.157.418.206.813-.319.85-.427.04-1.159.078-1.553-.077-.162-.076-.234-.18-.291-.345L96.216 9.687c-.046-.132-.233-.133-.28 0l-2.678 7.751a.147.147 0 0 0 .139.195h3.934c.315 0 .53.322.408.614l-.338.798a.586.586 0 0 1-.542.362h-4.12c-.063 0-.12.04-.14.1L91.26 23.43c-.057.164-.129.27-.291.345-.394.155-1.125.117-1.553.077-.524-.037-.475-.432-.318-.85l5.618-15.56c.213-.54.882-.544 1.361-.542.479-.002 1.149.001 1.361.542Zm-9.77 4.598c.049-1.633-.952-2.942-2.493-3.158-.57-.106-1.577-.098-2.398-.092l-.538.003a.295.295 0 0 0-.294.294v6.125c0 .163.13.295.293.295.157 0 .328.002.507.004.992.012 2.253.027 2.883-.26 1.353-.49 2.06-1.804 2.04-3.21Zm2.343-.181c.041 2.337-1.253 4.363-3.49 5.088-.746.258-1.637.389-2.673.389h-1.903v6.032c.019.574-2.227.574-2.227 0V7.911c0-.344.09-.591.272-.737a.944.944 0 0 1 .609-.221h3.586c1.247.018 2.45.126 3.605.796 1.484.836 2.24 2.404 2.22 4.11Zm26.641 11.65c3.522 1.298 8.396.068 8.389-4.375.04-1.733-.956-3.051-2.379-3.86-.558-.338-1.166-.616-1.773-.894-.76-.348-1.519-.696-2.177-1.16a3.252 3.252 0 0 1-.846-.879c-.519-.81-.405-2.13.344-2.798.821-.771 2.323-.804 3.364-.49.663.195 1.237.506 1.756.808.329.193.576.3.706-.057.093-.305.082-.783.063-1.1-.029-.275-.046-.434-.261-.63-.605-.48-1.596-.788-2.416-.928-2.932-.497-6.14.884-6.1 4.216-.042 2.934 2.409 4.046 4.678 5.076l.404.184c1.171.563 2.37 1.322 2.347 2.754.045 1.81-1.526 2.778-3.206 2.748-1.072.022-2.04-.291-2.887-.701a7.702 7.702 0 0 1-.833-.47c-.216-.144-.384-.216-.503-.216-.547-.032-.421 1.287-.337 1.595.128.385.293.486.662.711l.076.047c.25.144.56.284.929.42Z" clip-rule="evenodd"></path></svg>